<?xml version="1.0" encoding="utf-8"?>
<!-- Vasi Symbol — Dark Version (white symbol on Obsidian #0C1525) -->
<!-- Use for: app icon, web favicon, tab icon, dark backgrounds -->
<svg xmlns="http://www.w3.org/2000/svg" xmlns:xlink="http://www.w3.org/1999/xlink"
     width="500" height="500" viewBox="125 315 240 230">
  <!-- Background -->
  <rect x="125" y="315" width="240" height="230" fill="#0C1525"/>
  <!-- V letterform -->
  <path fill="#F9F8F8" transform="scale(0.969727 0.969727)" d="M148.025 356.694C171.46 354.03 200.693 371.203 213.093 390.481C222.161 404.579 226.425 423.51 232.48 439.269C240.789 460.897 247.693 483.53 256.35 504.978C260.537 496.202 265.104 482.799 268.489 473.453C273.923 458.511 279.282 443.542 284.565 428.546C293.476 402.698 296.42 387.244 320.288 370.371C335.657 359.319 354.814 354.884 373.478 358.058L371.12 364.566C359.781 363.707 354.106 364.754 344.095 369.986C330.286 378.52 322.717 387.831 316.24 402.698C312.009 412.41 307.694 422.185 303.444 431.891L275.011 496.93C269.059 510.669 262.836 526.206 256.148 539.46C253.572 532.962 250.25 526.14 247.456 519.631L220.004 456.484L203.829 417.935C196.857 401.399 191.405 386.765 176.785 374.968C165.816 366.118 155.957 363.189 141.999 364.6L139.471 358.061C142.292 357.417 145.158 357.081 148.025 356.694Z"/>
  <!-- Circular arc -->
  <path fill="#F9F8F8" transform="scale(0.969727 0.969727)" d="M168.349 386.157C168.665 386.311 169.263 386.767 169.577 386.988C169.581 388.603 167 392.06 165.969 393.875C152.501 417.06 149.046 444.728 156.397 470.514C164.163 498.145 181.392 519.226 206.448 533.082C230.589 546.464 259.09 549.598 285.562 541.782C317.012 532.674 342.243 509.131 353.502 478.385C355.408 473.245 358.874 456.945 359.682 455.476L360.707 455.309L361.389 456.113C359.249 471.901 353.613 487.014 344.894 500.349C329.432 523.898 305.245 540.337 277.657 546.046C249.595 551.874 220.369 546.019 196.718 529.829C173.491 514.304 157.494 490.08 152.337 462.622C147.041 435.167 152.76 409.208 168.349 386.157Z"/>
  <!-- Copper arc accent -->
  <path fill="#BF7A57" transform="scale(0.969727 0.969727)" d="M341.721 382.565C354.324 394.353 366.161 431.729 362.498 448.526C361.27 449.451 360.423 449.059 358.463 449.041C355.722 447.408 356.853 440.33 356.393 436.471C353.84 415.006 348.721 403.87 337.034 386.57L341.721 382.565Z"/>
  <!-- Copper gradient connector -->
  <defs>
    <linearGradient id="g0" gradientUnits="userSpaceOnUse" x1="242.79924" y1="362.43307" x2="247.09695" y2="335.59259">
      <stop offset="0" stop-color="#583F3E"/>
      <stop offset="1" stop-color="#C07B58"/>
    </linearGradient>
  </defs>
  <path fill="url(#g0)" transform="scale(0.969727 0.969727)" d="M198.643 355.626C225.621 338.153 266.279 331.383 295.986 345.66C294.015 345.77 293.543 345.614 291.658 344.984C290.251 345.163 288.666 346.757 286.178 347.316C256.253 337.504 226.635 338.598 199.552 356.063L198.643 355.626Z"/>
  <!-- Copper bridge -->
  <path fill="#BF7A57" transform="scale(0.969727 0.969727)" d="M286.178 347.316C288.666 346.757 290.251 345.163 291.658 344.984C293.543 345.614 294.015 345.77 295.986 345.66C303.761 348.077 315.051 355.441 321.75 360.52L315.318 364.38C306.219 356.544 297.469 351.538 286.178 347.316Z"/>
</svg>
