<?xml version="1.0" encoding="utf-8"?>
<!-- Vasi Symbol — Light Version (dark symbol on Off-White #F5F3EE) -->
<!-- Use for: light backgrounds, print, white-background contexts -->
<svg xmlns="http://www.w3.org/2000/svg" xmlns:xlink="http://www.w3.org/1999/xlink"
     width="500" height="500" viewBox="125 315 240 230">
  <!-- Background -->
  <rect x="125" y="315" width="240" height="230" fill="#F5F3EE"/>
  <!-- V letterform — right-half paths translated -512 to align with left-half viewBox -->
  <path fill="#0C1525" transform="scale(0.969727 0.969727) translate(-512 0)" d="M660.341 356.695C686.558 354.829 711.779 370.49 725.621 392.05C730.846 400.189 733.933 410.394 737.155 419.511L747.143 447.782C753.946 466.998 761.388 485.976 768.127 505.142C771.412 497.365 774.3 488.625 777.279 480.632L795.346 431.415C799.69 419.282 804.597 402.444 811.327 391.925C826.755 367.807 857.211 352.313 885.489 358.1L883.028 364.606C871.006 363.923 866.803 364.263 855.926 370.04C832.794 384.229 825.853 407.33 815.47 431.032L784.562 502.631C779.558 514.233 773.707 528.95 768.089 539.968C762.757 528.568 757.414 514.936 752.422 503.192L724.774 438.525C718.384 423.544 712.161 407.036 704.057 393.049C694.051 375.778 675.114 360.829 654.177 365.166C653.612 362.532 652.86 360.466 651.992 357.938C654.758 357.372 657.543 357.054 660.341 356.695Z"/>
  <!-- Circular arc -->
  <path fill="#0C1525" transform="scale(0.969727 0.969727) translate(-512 0)" d="M680.048 386.693C681.032 386.992 680.57 386.734 681.389 387.539C681.009 389.625 678.308 393.028 677.061 395.269C664.102 418.478 660.953 445.903 668.313 471.446C675.973 497.52 693.566 519.544 717.305 532.775C742.095 546.559 771.395 549.768 798.581 541.676C829.184 532.526 853.791 509.665 865.164 479.817C866.754 475.615 868.096 471.323 869.183 466.964C869.93 463.982 870.66 457.956 871.828 455.824L872.713 455.618L873.293 456.43C871.275 471.19 865.551 487.295 857.5 499.84C842.56 522.98 819.139 539.336 792.269 545.392C764.107 551.708 734.59 546.482 710.309 530.882C686.844 515.73 670.401 491.837 664.629 464.509C658.949 436.68 664.405 410.256 680.048 386.693Z"/>
  <!-- Copper arc accent -->
  <path fill="#BF7A57" transform="scale(0.969727 0.969727) translate(-512 0)" d="M853.763 381.632C853.892 381.744 854.02 381.856 854.148 381.968C867.671 398.794 874.244 420.076 875.286 441.454C875.415 444.1 875.36 447.002 873.774 448.748L871.396 448.771C868.053 448.184 868.548 445.729 868.503 442.302C868.239 422.445 860.735 402.476 849.127 386.539C851.088 384.737 852.054 383.629 853.763 381.632Z"/>
  <!-- Copper connector -->
  <path fill="#BF7A57" transform="scale(0.969727 0.969727) translate(-512 0)" d="M726.313 346.713C752.806 335.407 781.938 332.816 809.052 343.789C818.535 347.592 827.374 352.836 835.256 359.338L828.811 363.88C818.596 352.209 797.076 343.982 782.139 341.32C765.773 338.404 741.732 339.992 726.635 347.637L726.313 346.713Z"/>
  <!-- Copper bridge -->
  <path fill="#D2AD94" transform="scale(0.969727 0.969727) translate(-512 0)" d="M726.635 347.637C722.297 349.663 718.046 351.675 713.875 354.049C711.847 355.204 708.803 357.977 706.764 358.139C712.472 353.485 719.544 349.542 726.313 346.713L726.635 347.637Z"/>
</svg>
